<svg role="img" xmlns="http://www.w3.org/2000/svg" width="145" height="21" viewBox="0 0 109.20677 12.187369" fill="#ffffff">
  <g transform="translate(-34.477482,-122.5919)">
    <g transform="scale(0.26458333)">
      <path d="m 175.08984,482.71447 q 0,2.78125 -0.6875,4.96875 -0.6875,2.1875 -1.875,3.875 -1.15625,1.65625 -2.6875,2.84375 -1.53125,1.1875 -3.21875,1.9375 -1.65625,0.75 -3.375,1.09375 -1.6875,0.34375 -3.1875,0.34375 h -18.375 v -8.125 h 18.375 q 1.5625,-0.125 2.8125,-0.625 1.28125,-0.53125 2.1875,-1.40625 0.90625,-0.875 1.40625,-2.09375 0.5,-1.25 0.5,-2.8125 v -3.6875 q -0.15625,-1.53125 -0.65625,-2.8125 -0.5,-1.28125 -1.375,-2.1875 -0.84375,-0.90625 -2.0625,-1.40625 -1.21875,-0.53125 -2.8125,-0.53125 h -18.3125 q -1.625,0 -2.46875,0.84375 -0.84375,0.84375 -0.84375,2.4375 v 33.40625 h -8.125 v -33.40625 q 0,-3.125 1.125,-5.3125 1.15625,-2.1875 2.84375,-3.53125 1.71875,-1.34375 3.71875,-1.9375 2,-0.625 3.6875,-0.625 h 18.375 q 2.75,0 4.9375,0.71875 2.1875,0.6875 3.84375,1.875 1.6875,1.15625 2.84375,2.6875 1.1875,1.53125 1.9375,3.21875 0.78125,1.65625 1.125,3.375 0.34375,1.6875 0.34375,3.1875 z" />
      <path d="m 229.08984,490.65197 q 0,4.09375 -1.40625,7.53125 -1.40625,3.4375 -3.90625,5.9375 -2.5,2.5 -5.9375,3.90625 -3.40625,1.375 -7.4375,1.375 h -11 q -4.03125,0 -7.46875,-1.375 -3.4375,-1.40625 -5.9375,-3.90625 -2.5,-2.5 -3.9375,-5.9375 -1.40625,-3.4375 -1.40625,-7.53125 v -8.5625 q 0,-4.0625 1.40625,-7.5 1.4375,-3.46875 3.9375,-5.9375 2.5,-2.5 5.9375,-3.90625 3.4375,-1.40625 7.46875,-1.40625 h 11 q 4.03125,0 7.4375,1.40625 3.4375,1.40625 5.9375,3.90625 2.5,2.46875 3.90625,5.9375 1.40625,3.4375 1.40625,7.5 z m -8.125,-8.5625 q 0,-2.40625 -0.78125,-4.34375 -0.75,-1.96875 -2.15625,-3.34375 -1.375,-1.40625 -3.34375,-2.15625 -1.9375,-0.78125 -4.28125,-0.78125 h -11 q -2.375,0 -4.34375,0.78125 -1.9375,0.75 -3.34375,2.15625 -1.40625,1.375 -2.1875,3.34375 -0.75,1.9375 -0.75,4.34375 v 8.5625 q 0,2.40625 0.75,4.375 0.78125,1.9375 2.1875,3.34375 1.40625,1.375 3.34375,2.15625 1.96875,0.75 4.34375,0.75 h 10.9375 q 2.375,0 4.3125,-0.75 1.96875,-0.78125 3.375,-2.15625 1.40625,-1.40625 2.15625,-3.34375 0.78125,-1.96875 0.78125,-4.375 z" />
      <path d="m 277.05859,472.08947 h -17.90625 v 36.6875 h -8.125 v -36.6875 h -17.9375 v -8.125 h 43.96875 z" />
      <path d="m 325.52734,508.77697 h -8.125 v -11 h -28.5625 v 11 h -8.125 v -22.40625 q 0,-4.90625 1.6875,-9.03125 1.6875,-4.125 4.6875,-7.09375 3,-2.96875 7.09375,-4.625 4.09375,-1.65625 8.9375,-1.65625 h 18.3125 q 0.84375,0 1.59375,0.3125 0.75,0.3125 1.3125,0.875 0.5625,0.5625 0.875,1.3125 0.3125,0.75 0.3125,1.59375 z m -36.6875,-19.125 h 28.5625 v -17.5625 h -14.28125 q -0.375,0 -1.59375,0.125 -1.1875,0.0937 -2.78125,0.53125 -1.5625,0.4375 -3.3125,1.34375 -1.75,0.90625 -3.21875,2.5 -1.46875,1.59375 -2.4375,4 -0.9375,2.375 -0.9375,5.78125 z" />
      <path d="m 377.99609,495.58947 q 0,2.40625 -0.625,4.34375 -0.59375,1.90625 -1.59375,3.375 -1,1.46875 -2.34375,2.5 -1.34375,1.03125 -2.78125,1.6875 -1.4375,0.65625 -2.9375,0.96875 -1.46875,0.3125 -2.78125,0.3125 h -31.34375 v -8.125 h 31.34375 q 2.34375,0 3.625,-1.375 1.3125,-1.375 1.3125,-3.6875 0,-1.125 -0.34375,-2.0625 -0.34375,-0.9375 -1,-1.625 -0.625,-0.6875 -1.5625,-1.0625 -0.90625,-0.375 -2.03125,-0.375 h -18.6875 q -1.96875,0 -4.25,-0.6875 -2.28125,-0.71875 -4.25,-2.28125 -1.9375,-1.5625 -3.25,-4.09375 -1.28125,-2.53125 -1.28125,-6.1875 0,-3.65625 1.28125,-6.15625 1.3125,-2.53125 3.25,-4.09375 1.96875,-1.59375 4.25,-2.28125 2.28125,-0.71875 4.25,-0.71875 h 27.65625 v 8.125 h -27.65625 q -2.3125,0 -3.625,1.40625 -1.28125,1.40625 -1.28125,3.71875 0,2.34375 1.28125,3.71875 1.3125,1.34375 3.625,1.34375 h 18.6875 0.0625 q 1.3125,0.0312 2.78125,0.375 1.46875,0.3125 2.90625,1 1.46875,0.6875 2.78125,1.75 1.3125,1.03125 2.3125,2.5 1.03125,1.46875 1.625,3.375 0.59375,1.90625 0.59375,4.3125 z" />
      <path d="m 392.99609,508.77697 h -8.125 v -44.8125 h 8.125 z" />
      <path d="m 439.40234,490.46447 h -25.65625 v -8.1875 h 25.65625 z m 3.65625,18.3125 h -29.3125 q -1.6875,0 -3.6875,-0.59375 -2,-0.59375 -3.71875,-1.9375 -1.6875,-1.375 -2.84375,-3.53125 -1.125,-2.1875 -1.125,-5.34375 v -29.3125 q 0,-0.84375 0.3125,-1.59375 0.3125,-0.75 0.84375,-1.3125 0.5625,-0.5625 1.3125,-0.875 0.75,-0.3125 1.625,-0.3125 h 36.59375 v 8.125 h -32.5625 v 25.28125 q 0,1.59375 0.84375,2.4375 0.84375,0.84375 2.46875,0.84375 h 29.25 z" />
      <path d="m 495.58984,482.71447 q 0,2.78125 -0.6875,4.96875 -0.6875,2.1875 -1.875,3.875 -1.15625,1.65625 -2.6875,2.84375 -1.53125,1.1875 -3.21875,1.9375 -1.65625,0.75 -3.375,1.09375 -1.6875,0.34375 -3.1875,0.34375 h -18.375 v -8.125 h 18.375 q 1.5625,-0.125 2.8125,-0.625 1.28125,-0.53125 2.1875,-1.40625 0.90625,-0.875 1.40625,-2.09375 0.5,-1.25 0.5,-2.8125 v -3.6875 q -0.15625,-1.53125 -0.65625,-2.8125 -0.5,-1.28125 -1.375,-2.1875 -0.84375,-0.90625 -2.0625,-1.40625 -1.21875,-0.53125 -2.8125,-0.53125 h -18.3125 q -1.625,0 -2.46875,0.84375 -0.84375,0.84375 -0.84375,2.4375 v 33.40625 h -8.125 v -33.40625 q 0,-3.125 1.125,-5.3125 1.15625,-2.1875 2.84375,-3.53125 1.71875,-1.34375 3.71875,-1.9375 2,-0.625 3.6875,-0.625 h 18.375 q 2.75,0 4.9375,0.71875 2.1875,0.6875 3.84375,1.875 1.6875,1.15625 2.84375,2.6875 1.1875,1.53125 1.9375,3.21875 0.78125,1.65625 1.125,3.375 0.34375,1.6875 0.34375,3.1875 z" />
      <path d="m 539.40234,490.46447 h -25.65625 v -8.1875 h 25.65625 z m 3.65625,18.3125 h -29.3125 q -1.6875,0 -3.6875,-0.59375 -2,-0.59375 -3.71875,-1.9375 -1.6875,-1.375 -2.84375,-3.53125 -1.125,-2.1875 -1.125,-5.34375 v -29.3125 q 0,-0.84375 0.3125,-1.59375 0.3125,-0.75 0.84375,-1.3125 0.5625,-0.5625 1.3125,-0.875 0.75,-0.3125 1.625,-0.3125 h 36.59375 v 8.125 h -32.5625 v 25.28125 q 0,1.59375 0.84375,2.4375 0.84375,0.84375 2.46875,0.84375 h 29.25 z" />
    </g>
  </g>
</svg>
