<svg role="img" xmlns="http://www.w3.org/2000/svg" xmlns:xlink="http://www.w3.org/1999/xlink" width="180" height="26" viewBox="0 0 109.207 12.187" fill="#ffffff" xmlns:v="https://vecta.io/nano"><path d="M11.848 5.126q0 .736-.182 1.315-.182.579-.496 1.025-.306.438-.711.752-.405.314-.852.513-.438.198-.893.289-.446.091-.843.091H3.01v-2.15h4.862q.413-.033.744-.165.339-.141.579-.372.24-.232.372-.554.132-.331.132-.744V4.15q-.041-.405-.174-.744-.132-.339-.364-.579-.223-.24-.546-.372-.322-.141-.744-.141H3.026q-.43 0-.653.223-.223.223-.223.645v8.839H0V3.183q0-.827.298-1.406.306-.579.752-.934.455-.356.984-.513.529-.165.976-.165h4.862q.728 0 1.306.19.579.182 1.017.496.446.306.752.711.314.405.513.852.207.438.298.893.091.446.091.843zm14.288 2.1q0 1.083-.372 1.993-.372.91-1.034 1.571-.661.661-1.571 1.034-.901.364-1.968.364h-2.91q-1.067 0-1.976-.364-.91-.372-1.571-1.034-.661-.661-1.042-1.571-.372-.91-.372-1.993V4.961q0-1.075.372-1.984.38-.918 1.042-1.571.661-.661 1.571-1.034Q17.214 0 18.281 0h2.91q1.067 0 1.968.372.91.372 1.571 1.034.661.653 1.034 1.571.372.91.372 1.984zm-2.15-2.265q0-.637-.207-1.149-.198-.521-.571-.885-.364-.372-.885-.571-.513-.207-1.133-.207h-2.91q-.628 0-1.149.207-.513.198-.885.571-.372.364-.579.885-.198.513-.198 1.149v2.265q0 .637.198 1.158.207.513.579.885.372.364.885.571.521.198 1.149.198h2.894q.628 0 1.141-.198.521-.207.893-.571.372-.372.571-.885.207-.521.207-1.158zm14.842-2.646H34.09v9.707h-2.15V2.315h-4.746V.165h11.633zm12.824 9.707h-2.15v-2.91h-7.557v2.91h-2.15V6.094q0-1.298.446-2.39.446-1.091 1.24-1.877.794-.785 1.877-1.224 1.083-.438 2.365-.438h4.845q.223 0 .422.083.198.083.347.232.149.149.232.347.083.198.083.422zm-9.707-5.06h7.557V2.315h-3.779q-.099 0-.422.033-.314.025-.736.141-.413.116-.876.356-.463.24-.852.661-.389.422-.645 1.058-.248.628-.248 1.53zm23.589 1.571q0 .637-.165 1.149-.157.504-.422.893-.265.389-.62.661-.356.273-.736.446-.38.174-.777.256-.389.083-.736.083h-8.293v-2.15h8.293q.62 0 .959-.364.347-.364.347-.976 0-.298-.091-.546-.091-.248-.265-.43-.165-.182-.413-.281-.24-.099-.537-.099h-4.944q-.521 0-1.124-.182-.604-.19-1.124-.604-.513-.413-.86-1.083-.339-.67-.339-1.637 0-.967.339-1.629.347-.67.86-1.083.521-.422 1.124-.604.604-.19 1.124-.19h7.317v2.15h-7.317q-.612 0-.959.372-.339.372-.339.984 0 .62.339.984.347.356.959.356h4.944.017q.347.008.736.099.389.083.769.265.389.182.736.463.347.273.612.661.273.389.43.893.157.504.157 1.141zm3.969 3.489h-2.15V.165h2.15z"/><use xlink:href="#B"/><path d="M96.647 5.126q0 .736-.182 1.315-.182.579-.496 1.025-.306.438-.711.752-.405.314-.852.513-.438.198-.893.289-.446.091-.843.091h-4.862v-2.15h4.862q.413-.033.744-.165.339-.141.579-.372.24-.232.372-.554.132-.331.132-.744V4.15q-.041-.405-.174-.744-.132-.339-.364-.579-.223-.24-.546-.372-.322-.141-.744-.141h-4.845q-.43 0-.653.223-.223.223-.223.645v8.839h-2.15V3.183q0-.827.298-1.406.306-.579.752-.934.455-.356.984-.513.529-.165.976-.165h4.862q.728 0 1.306.19.579.182 1.017.496.446.306.752.711.314.405.513.852.207.438.298.893.091.446.091.843z"/><use xlink:href="#B" x="26.458"/><defs ><path id="B" d="M81.781 7.177h-6.788V5.01h6.788zm.967 4.845h-7.756q-.446 0-.976-.157-.529-.157-.984-.513-.446-.364-.752-.934-.298-.579-.298-1.414V1.248q0-.223.083-.422.083-.198.223-.347.149-.149.347-.232.198-.083.43-.083h9.682v2.15h-8.615v6.689q0 .422.223.645.223.223.653.223h7.739z"/></defs></svg>
