<svg xmlns="http://www.w3.org/2000/svg" width="400" height="400" viewBox="0 0 400 NaN" fill-rule="evenodd" xmlns:v="https://vecta.io/nano"><path d="M185.4 28.385c-.66.176-2.371.342-3.803.368s-3.231.234-4 .462c-1.247.37-3.808.823-7.997 1.416-.77.108-2.3.45-3.4.759l-3.8 1.033-6.495 2.025c-.382.194-.894.352-1.139.352s-1.012.249-1.706.553l-2.66 1.043c-3.87 1.354-13.707 6.218-18.319 9.059-3.848 2.371-8.513 5.608-10.68 7.411l-2.601 2.131c-3.876 3.153-9.518 8.981-13.946 14.404-1.9 2.327-4.854 6.555-4.854 6.948 0 .248-.151.451-.336.451s-.539.405-.787.9-1.176 2.16-2.064 3.7c-1.599 2.776-1.984 3.546-3.902 7.8-1.854 4.111-2.053 4.599-2.535 6.2-.264.88-.704 2.23-.976 3-1.021 2.888-1.4 4.283-1.4 5.155 0 .494-.199 1.269-.441 1.722-2.714 5.07-2.711 30.558.004 40.323l.889 3.4a66.65 66.65 0 0 0 .968 3.454c.319 1.019.58 2.147.58 2.505s.158.964.35 1.346.664 1.775 1.047 3.095.84 2.76 1.016 3.2.413 1.16.527 1.6.769 2.33 1.456 4.2l1.572 4.4c.177.55.725 1.99 1.218 3.2l1.207 3c1.427 3.672 1.831 4.659 2.661 6.511.52 1.161.946 2.207.946 2.325 0 .22 1.168 2.835 3.289 7.364a508.53 508.53 0 0 0 6.992 14c1.083 2.036.888 1.707 4.021 6.8 4.821 7.839 5.311 10.585 3.105 17.4-.285.88-.725 2.59-.979 3.8a79.37 79.37 0 0 1-1.021 4.2l-1.01 3.8a120.18 120.18 0 0 1-.978 3.6l-1.005 3.6c-1.228 4.603-2.468 8.719-3.134 10.4-.218.55-.63 1.81-.914 2.8-.483 1.678-1.551 4.286-3.11 7.591-2.104 4.461-6.382 9.479-9.56 11.213-.823.449-2.126 1.197-2.896 1.662s-2.3 1.322-3.4 1.904-2.786 1.585-3.748 2.229l-1.747 1.17 1.547 1.33c2.682 2.305 4.225 3.559 8.748 7.105l5.201 4.123c.682.572 2.195 1.765 4.998 3.94l2.801 2.211 5.8 4.533 4.2 3.281c.33.271 3.03 2.398 6 4.728l9.551 7.507 6 4.638c1.017.751 1.939 1.471 2.049 1.601s1.28 1.045 2.6 2.034 2.49 1.896 2.6 2.017 5.69 4.43 12.4 9.578l12.4 9.585c.11.123 1.275 1.025 2.589 2.003l3 2.273c2.81 2.278 12.806 9.857 16.112 12.216 3.853 2.75 3.593 2.827 8.499-2.533.88-.961 2.68-3.005 4-4.542l3.449-3.995L216.43 358l5.163-6c.127-.11 1.66-1.91 3.407-4l3.388-4c.117-.11 1.289-1.46 2.606-3l2.612-3c.12-.11 1.647-1.91 3.394-4l3.388-4c.117-.11 1.289-1.46 2.606-3l2.612-3c.12-.11 1.652-1.91 3.405-4l6.639-7.831c.962-1.117 2.229-2.647 2.815-3.4l4-5.063c5.888-7.412 5.99-8.039 1.616-9.926-4.06-1.75-3.606-.714-4.898-11.18-1.585-12.847-.793-14.564 7.817-16.938l4-1.095c1.32-.36 2.713-.814 3.095-1.01s.987-.357 1.346-.357 1.486-.261 2.505-.58 2.664-.791 3.654-1.049l3.6-.971 3.6-.992c21.112-5.753 30.421-19.363 22.432-32.798-1.407-2.367-5.376-6.645-8.732-9.41-1.641-1.352-1.655-1.207.572-5.726 3.201-6.493 2.81-9.487-1.548-11.836-4.631-2.496-4.758-3.248-1.124-6.638 1.54-1.437 2.801-2.79 2.801-3.006.002-.511-2.509-6.746-3.66-9.089-.945-1.923-.293-3.003 3.259-5.399 11.164-7.533 11.969-18.159 1.881-24.827-3.822-2.527-10.681-9.594-10.681-11.006 0-.767.841-1.255 3.912-2.271 18.537-6.133 30.215-13.931 38.888-25.965 2.738-3.799 6.4-11.139 6.4-12.827 0-.42.154-.858.343-.975s.46-1.072.602-2.123.365-2.381.493-2.954c.318-1.423-.445-1.536-13.438-1.974l-34-1.566c-1.43-.221-4.4-.413-6.6-.427-7.117-.044-8.638-.741-10.465-4.791-.149-.33-.87-1.548-1.603-2.708s-1.332-2.206-1.332-2.326-.45-.809-1-1.53-1-1.442-1-1.6-.45-.879-1-1.6-1-1.431-1-1.577c0-.4-5.183-7.484-6.481-8.859-.623-.66-1.534-1.779-2.024-2.486C261.717 57.016 244.487 42 242.533 42c-.142 0-.847-.45-1.569-1s-1.388-1-1.482-1-1.417-.685-2.94-1.522-3.52-1.822-4.438-2.19a103.57 103.57 0 0 1-3.387-1.44c-.944-.424-2.617-1.075-3.717-1.445s-2.313-.838-2.695-1.038-.987-.365-1.346-.365-1.576-.289-2.705-.643c-3.815-1.194-4.507-1.357-5.756-1.357a7.78 7.78 0 0 1-2.372-.442c-2.594-1.018-21.881-1.933-24.726-1.173m29.368 105.104c.286.39 4.472 1.907 8.232 2.983 1.54.441 3.113.965 3.495 1.165a3.59 3.59 0 0 0 1.4.361c.388-.001 1.515.257 2.505.572s2.52.753 3.4.971c12.402 3.068 13.073 3.467 11.631 6.918l-1.128 2.741c-.22.55-.674 1.52-1.008 2.156-.658 1.253.39 2.584 4.353 5.529.796.592 2.982 2.597 4.858 4.456 4.486 4.446 7.087 8.054 8.838 12.259 1.268 3.045 1.748 7.568 1.125 10.598-.226 1.101-.687 3.622-1.024 5.602l-.859 4.8c-.136.66-.388 2.19-.562 3.4l-.813 5.259-.496 3.06 1.571 2.14c6.003 8.177 10.965 16.366 11.816 19.499 3.213 11.828-9.463 20.42-28.756 19.492-7.215-.347-13.993-1.207-16.946-2.149-.77-.246-2.21-.662-3.2-.926-2.513-.668-5.271-1.578-6.095-2.01-.382-.201-.872-.365-1.089-.365-.624 0-7.779-3.351-10.76-5.039-2.484-1.407-8.237-5.805-10.516-8.041-2.691-2.638-3.322-2.547-2.936.423 1.171 9.021 10.125 22.052 19.965 29.057l3.09 2.2-.195 4.2c-.213 4.571-.407 5.962-1.256 9l-1.019 3.8c-.664 2.599-2.412 8.431-2.877 9.6-.219.55-.731 1.99-1.137 3.2-1.218 3.629-1.812 5.17-2.101 5.459-.151.151-.274.622-.274 1.046s-.263 1.249-.585 1.833-.856 1.872-1.187 2.862c-1.099 3.286-1.677 4.782-1.954 5.059-.151.151-.274.658-.274 1.128s-.158 1.024-.351 1.233-.727 1.46-1.188 2.78l-2.067 5.8c-.677 1.87-1.508 4.3-1.849 5.4s-.872 2.591-1.181 3.314-.564 1.609-.564 1.971-.164 1.211-.365 1.887c-1.294 4.356-1.635 6.905-1.635 12.217 0 5.375-.509 9.211-1.221 9.211-.318 0-19.691-14.437-20.379-15.187-.11-.12-1.28-1.014-2.6-1.989s-2.49-1.874-2.6-2-1.28-1.025-2.6-2-2.49-1.874-2.6-2-1.269-1.038-2.576-2.026l-5.4-4.117-5.224-3.972c-1.21-.909-2.29-1.757-2.4-1.883s-1.28-1.027-2.6-2.002-2.49-1.874-2.6-2-1.28-1.025-2.6-2-2.49-1.874-2.6-2-1.19-.975-2.4-1.886c-12.732-9.595-16.336-12.989-14.8-13.938.22-.136.4-.507.4-.826s.45-1.511 1-2.651 1-2.214 1-2.387.43-1.264.955-2.425c.892-1.972 2.337-5.577 3.73-9.311.328-.88.723-1.87.876-2.2s1.059-3.03 2.013-6l2.029-6.2c.268-.721.721-2.311 2.055-7.2.24-.88.685-2.397.989-3.371s.553-2.102.553-2.506.164-1.046.364-1.428c.347-.663 1.707-5.971 2.46-9.601.195-.938.539-2.051.765-2.473s.411-1.22.411-1.771.18-1.114.4-1.25.407-.642.416-1.124c.043-2.261 1.688-4.421 3.784-4.968 7.536-1.967 11.487-2.565 24.4-3.692 7.281-.636 10.211-1.722 13.347-4.946 2.012-2.069 1.944-2.713-.238-2.236l-2.709.573-3.047.646c-15.628 3.4-29.81-19.244-26.587-42.453 2.469-17.774 13.648-19.749 29.542-5.219 2.26 2.066 3.815 2.2 10.256.886 4.955-1.011 5.389-1.93 7.204-15.267.322-2.364 1.046-6.348 1.655-9.106.207-.938.377-2.261.377-2.939 0-2.982 1.628-4.42 7.2-6.357 4.72-1.64 10.819-2.331 11.568-1.309M156.26 170.1c-1.329 1.761-2.111 3.762-2.459 6.294l-.291 2.115 1.035-.259c.569-.143 1.694-.708 2.5-1.255 4.42-3 9.572 2.349 7.953 8.257-1.755 6.403-.094 10.917 4.843 13.166 3.231 1.472 4.092.275 2.713-3.772-1.023-3.003-.624-6.069 1.169-8.974 1.987-3.219 2.097-2.942-3.223-8.112-9.214-8.952-12.01-10.416-14.24-7.46" fill="#040404"/><path d="M175.7.298c-3.275.104-4.1.248-4.1.716s-.681.586-3.4.586c-2 0-3.4.165-3.4.4 0 .226-1.133.4-2.6.4-2.044 0-2.6.128-2.6.6s-.533.6-2.4.6c-1.333 0-2.4.178-2.4.4s-.906.4-2.013.4c-1.419 0-2.08.177-2.242.6-.157.407-.795.6-1.988.6-.966 0-1.757.18-1.757.4s-.72.4-1.6.4c-1.156 0-1.6.167-1.6.6s-.444.6-1.6.6c-.88 0-1.6.18-1.6.4s-.698.4-1.551.4c-.891 0-1.763.255-2.049.6-.274.33-1.106.6-1.849.6s-1.351.18-1.351.4-.45.4-1 .4c-.622 0-1 .227-1 .6 0 .433-.444.6-1.6.6-.88 0-1.6.18-1.6.4s-.63.4-1.4.4c-.978 0-1.4.181-1.4.6 0 .373-.378.6-1 .6-.55 0-1 .18-1 .4s-.636.4-1.413.4c-.886 0-1.498.223-1.642.6-.127.33-.661.6-1.188.6s-.957.18-.957.4-.45.4-1 .4c-.622 0-1 .227-1 .6s-.378.6-1 .6c-.55 0-1 .18-1 .4s-.45.4-1 .4c-.622 0-1 .227-1 .6s-.378.6-1 .6c-.55 0-1 .18-1 .4s-.45.4-1 .4c-.622 0-1 .227-1 .6s-.378.6-1 .6c-.55 0-1 .18-1 .4s-.45.4-1 .4c-.622 0-1 .227-1 .6s-.378.6-1 .6c-.55 0-1 .18-1 .4s-.366.4-.813.4-.916.27-1.042.6a1.05 1.05 0 0 1-.888.613c-.829.016-2.057.93-2.057 1.531 0 .251-.45.456-1 .456s-1 .18-1 .4-.45.4-1 .4c-.622 0-1 .227-1 .6a.6.6 0 0 1-.6.6c-.33 0-.6.18-.6.4s-.335.4-.744.4-1.082.45-1.495 1-1.157 1-1.656 1c-.538 0-.905.243-.905.6a.6.6 0 0 1-.6.6c-.33 0-.6.18-.6.4s-.335.4-.744.4-1.082.45-1.495 1-1.157 1-1.656 1c-.538 0-.905.243-.905.6 0 .33-.193.6-.429.6-.553 0-1.571 1.018-1.571 1.571 0 .236-.45.429-1 .429s-1 .18-1 .4-.27.4-.6.4-.6.193-.6.429c0 .61-.889 1.418-1.919 1.745-.484.154-.881.448-.881.653s-.193.373-.429.373c-.553 0-1.571 1.018-1.571 1.571a.43.43 0 0 1-.429.429c-.553 0-1.571 1.018-1.571 1.571 0 .236-.384.429-.853.429s-1.447.63-2.173 1.4-1.512 1.4-1.747 1.4a.43.43 0 0 0-.427.429c0 .553-1.018 1.571-1.571 1.571a.43.43 0 0 0-.429.429c0 .553-1.018 1.571-1.571 1.571a.43.43 0 0 0-.429.429c0 .553-1.018 1.571-1.571 1.571a.43.43 0 0 0-.429.429c0 .553-1.018 1.571-1.571 1.571a.43.43 0 0 0-.429.429c0 .553-1.018 1.571-1.571 1.571a.43.43 0 0 0-.429.429c0 .553-1.018 1.571-1.571 1.571a.43.43 0 0 0-.429.429c0 .553-1.018 1.571-1.571 1.571a.43.43 0 0 0-.429.427c0 .235-.63 1.021-1.4 1.747s-1.4 1.704-1.4 2.173-.193.853-.429.853c-.553 0-1.571 1.018-1.571 1.571a.43.43 0 0 1-.429.429c-.553 0-1.571 1.018-1.571 1.571 0 .236-.168.429-.373.429s-.499.397-.653.881c-.327 1.03-1.135 1.919-1.745 1.919-.236 0-.429.27-.429.6s-.18.6-.4.6-.4.45-.4 1-.193 1-.429 1c-.553 0-1.571 1.018-1.571 1.571 0 .236-.27.429-.6.429-.357 0-.6.367-.6.905 0 .499-.449 1.242-1 1.656s-1 1.086-1 1.495-.18.744-.4.744-.4.27-.4.6a.6.6 0 0 1-.6.6c-.357 0-.6.367-.6.905 0 .499-.449 1.242-1 1.656s-1 1.086-1 1.495-.18.744-.4.744-.4.27-.4.6a.6.6 0 0 1-.6.6c-.373 0-.6.378-.6 1 0 .55-.18 1-.4 1s-.4.45-.4 1-.205 1-.456 1c-.601 0-1.515 1.228-1.531 2.057a1.05 1.05 0 0 1-.613.888c-.33.126-.6.596-.6 1.042s-.18.813-.4.813-.4.45-.4 1c0 .622-.227 1-.6 1s-.6.378-.6 1c0 .55-.18 1-.4 1s-.4.45-.4 1c0 .622-.227 1-.6 1s-.6.378-.6 1c0 .55-.18 1-.4 1s-.4.45-.4 1c0 .622-.227 1-.6 1s-.6.378-.6 1c0 .55-.18 1-.4 1s-.4.45-.4 1c0 .622-.227 1-.6 1s-.6.378-.6 1c0 .55-.18 1-.4 1s-.4.431-.4.957-.27 1.061-.6 1.188c-.377.144-.6.756-.6 1.642 0 .777-.18 1.413-.4 1.413s-.4.45-.4 1c0 .622-.227 1-.6 1-.419 0-.6.422-.6 1.4 0 .77-.18 1.4-.4 1.4s-.4.72-.4 1.6c0 1.156-.167 1.6-.6 1.6-.373 0-.6.378-.6 1 0 .55-.18 1-.4 1s-.4.608-.4 1.351-.27 1.575-.6 1.849c-.345.286-.6 1.158-.6 2.049 0 .853-.18 1.551-.4 1.551s-.4.72-.4 1.6c0 1.156-.167 1.6-.6 1.6s-.6.444-.6 1.6c0 .88-.18 1.6-.4 1.6s-.4.791-.4 1.757c0 1.193-.193 1.831-.6 1.988-.423.162-.6.823-.6 2.242 0 1.107-.18 2.013-.4 2.013s-.4 1.067-.4 2.4c0 1.867-.133 2.4-.6 2.4s-.6.556-.6 2.6c0 1.467-.174 2.6-.4 2.6-.235 0-.4 1.4-.4 3.4 0 2.58-.13 3.4-.538 3.4C.308 171.6 0 179.835 0 200s.308 28.4 1.062 28.4c.408 0 .538.82.538 3.4 0 2 .165 3.4.4 3.4.226 0 .4 1.133.4 2.6 0 2.044.128 2.6.6 2.6s.6.533.6 2.4c0 1.333.178 2.4.4 2.4s.4.906.4 2.013c0 1.419.177 2.08.6 2.242.407.157.6.795.6 1.988 0 .966.18 1.757.4 1.757s.4.72.4 1.6c0 1.156.167 1.6.6 1.6s.6.444.6 1.6c0 .88.18 1.6.4 1.6s.4.698.4 1.551c0 .891.255 1.763.6 2.049.33.274.6 1.106.6 1.849s.18 1.351.4 1.351.4.45.4 1c0 .622.227 1 .6 1 .433 0 .6.444.6 1.6 0 .88.18 1.6.4 1.6s.4.63.4 1.4c0 .978.181 1.4.6 1.4.373 0 .6.378.6 1 0 .55.18 1 .4 1s.4.636.4 1.413c0 .886.223 1.498.6 1.642.33.127.6.661.6 1.188s.18.957.4.957.4.45.4 1c0 .622.227 1 .6 1s.6.378.6 1c0 .55.18 1 .4 1s.4.45.4 1c0 .622.227 1 .6 1s.6.378.6 1c0 .55.18 1 .4 1s.4.45.4 1c0 .622.227 1 .6 1s.6.378.6 1c0 .55.18 1 .4 1s.4.45.4 1c0 .622.227 1 .6 1s.6.378.6 1c0 .55.18 1 .4 1s.4.366.4.813.27.916.6 1.042a1.05 1.05 0 0 1 .613.888c.016.829.93 2.057 1.531 2.057.251 0 .456.45.456 1s.18 1 .4 1 .4.45.4 1c0 .622.227 1 .6 1a.6.6 0 0 1 .6.6c0 .33.18.6.4.6s.4.335.4.744.45 1.082 1 1.495 1 1.157 1 1.656c0 .538.243.905.6.905a.6.6 0 0 1 .6.6c0 .33.18.6.4.6s.4.335.4.744.45 1.082 1 1.495 1 1.157 1 1.656c0 .538.243.905.6.905.33 0 .6.193.6.429 0 .553 1.018 1.571 1.571 1.571.236 0 .429.45.429 1s.18 1 .4 1 .4.27.4.6.193.6.429.6c.61 0 1.418.889 1.745 1.919.154.484.448.881.653.881s.373.193.373.429c0 .553 1.018 1.571 1.571 1.571a.43.43 0 0 1 .429.429c0 .553 1.018 1.571 1.571 1.571.236 0 .429.384.429.853s.63 1.447 1.4 2.173 1.4 1.512 1.4 1.747a.43.43 0 0 0 .429.427c.553 0 1.571 1.018 1.571 1.571a.43.43 0 0 0 .429.429c.553 0 1.571 1.018 1.571 1.571a.43.43 0 0 0 .429.429c.553 0 1.571 1.018 1.571 1.571a.43.43 0 0 0 .429.429c.553 0 1.571 1.018 1.571 1.571a.43.43 0 0 0 .429.429c.553 0 1.571 1.018 1.571 1.571a.43.43 0 0 0 .429.429c.553 0 1.571 1.018 1.571 1.571a.43.43 0 0 0 .429.429c.553 0 1.571 1.018 1.571 1.571a.43.43 0 0 0 .427.429c.235 0 1.021.63 1.747 1.4s1.704 1.4 2.173 1.4.853.193.853.429c0 .553 1.018 1.571 1.571 1.571a.43.43 0 0 1 .429.429c0 .553 1.018 1.571 1.571 1.571.236 0 .429.168.429.373s.397.499.881.653c1.03.327 1.919 1.135 1.919 1.745 0 .236.27.429.6.429s.6.18.6.4.45.4 1 .4 1 .193 1 .429c0 .553 1.018 1.571 1.571 1.571.236 0 .429.27.429.6 0 .357.367.6.905.6.499 0 1.242.449 1.656 1s1.086 1 1.495 1 .744.18.744.4.27.4.6.4a.6.6 0 0 1 .6.6c0 .357.367.6.905.6.499 0 1.242.449 1.656 1s1.086 1 1.495 1 .744.18.744.4.27.4.6.4a.6.6 0 0 1 .6.6c0 .373.378.6 1 .6.55 0 1 .18 1 .4s.45.4 1 .4 1 .205 1 .456c0 .601 1.228 1.515 2.057 1.531a1.05 1.05 0 0 1 .888.613c.126.33.596.6 1.042.6s.813.18.813.4.45.4 1 .4c.622 0 1 .227 1 .6s.378.6 1 .6c.55 0 1 .18 1 .4s.45.4 1 .4c.622 0 1 .227 1 .6s.378.6 1 .6c.55 0 1 .18 1 .4s.45.4 1 .4c.622 0 1 .227 1 .6s.378.6 1 .6c.55 0 1 .18 1 .4s.45.4 1 .4c.622 0 1 .227 1 .6s.378.6 1 .6c.55 0 1 .18 1 .4s.431.4.957.4 1.061.27 1.188.6c.144.377.756.6 1.642.6.777 0 1.413.18 1.413.4s.45.4 1 .4c.622 0 1 .227 1 .6 0 .419.422.6 1.4.6.77 0 1.4.18 1.4.4s.72.4 1.6.4c1.156 0 1.6.167 1.6.6 0 .373.378.6 1 .6.55 0 1 .18 1 .4s.608.4 1.351.4 1.575.27 1.849.6c.286.345 1.158.6 2.049.6.853 0 1.551.18 1.551.4s.72.4 1.6.4c1.156 0 1.6.167 1.6.6s.444.6 1.6.6c.88 0 1.6.18 1.6.4s.791.4 1.757.4c1.193 0 1.831.193 1.988.6.162.423.823.6 2.242.6 1.107 0 2.013.18 2.013.4s1.067.4 2.4.4c1.867 0 2.4.133 2.4.6s.556.6 2.6.6c1.467 0 2.6.174 2.6.4 0 .235 1.4.4 3.4.4 2.58 0 3.4.13 3.4.538 0 .754 8.235 1.062 28.4 1.062s28.4-.308 28.4-1.062c0-.408.82-.538 3.4-.538 2 0 3.4-.165 3.4-.4 0-.226 1.133-.4 2.6-.4 2.044 0 2.6-.128 2.6-.6s.533-.6 2.4-.6c1.333 0 2.4-.178 2.4-.4s.906-.4 2.013-.4c1.419 0 2.08-.177 2.242-.6.157-.407.795-.6 1.988-.6.966 0 1.757-.18 1.757-.4s.72-.4 1.6-.4c1.156 0 1.6-.167 1.6-.6s.444-.6 1.6-.6c.88 0 1.6-.18 1.6-.4s.698-.4 1.551-.4c.891 0 1.763-.255 2.049-.6.274-.33 1.106-.6 1.849-.6s1.351-.18 1.351-.4.45-.4 1-.4c.622 0 1-.227 1-.6 0-.433.444-.6 1.6-.6.88 0 1.6-.18 1.6-.4s.63-.4 1.4-.4c.978 0 1.4-.181 1.4-.6 0-.373.378-.6 1-.6.55 0 1-.18 1-.4s.636-.4 1.413-.4c.886 0 1.498-.223 1.642-.6.127-.33.661-.6 1.188-.6s.957-.18.957-.4.45-.4 1-.4c.622 0 1-.227 1-.6s.378-.6 1-.6c.55 0 1-.18 1-.4s.45-.4 1-.4c.622 0 1-.227 1-.6s.378-.6 1-.6c.55 0 1-.18 1-.4s.45-.4 1-.4c.622 0 1-.227 1-.6s.378-.6 1-.6c.55 0 1-.18 1-.4s.45-.4 1-.4c.622 0 1-.227 1-.6s.378-.6 1-.6c.55 0 1-.18 1-.4s.366-.4.813-.4.916-.27 1.042-.6a1.05 1.05 0 0 1 .888-.613c.829-.016 2.057-.93 2.057-1.531 0-.251.45-.456 1-.456s1-.18 1-.4.45-.4 1-.4c.622 0 1-.227 1-.6a.6.6 0 0 1 .6-.6c.33 0 .6-.18.6-.4s.335-.4.744-.4 1.082-.45 1.495-1 1.157-1 1.656-1c.538 0 .905-.243.905-.6a.6.6 0 0 1 .6-.6c.33 0 .6-.18.6-.4s.335-.4.744-.4 1.082-.45 1.495-1 1.157-1 1.656-1c.538 0 .905-.243.905-.6 0-.33.193-.6.429-.6.553 0 1.571-1.018 1.571-1.571 0-.236.45-.429 1-.429s1-.18 1-.4.27-.4.6-.4.6-.193.6-.429c0-.61.889-1.418 1.919-1.745.484-.154.881-.448.881-.653s.193-.373.429-.373c.553 0 1.571-1.018 1.571-1.571a.43.43 0 0 1 .429-.429c.553 0 1.571-1.018 1.571-1.571 0-.236.384-.429.853-.429s1.447-.63 2.173-1.4 1.512-1.4 1.747-1.4a.43.43 0 0 0 .427-.429c0-.553 1.018-1.571 1.571-1.571a.43.43 0 0 0 .429-.429c0-.553 1.018-1.571 1.571-1.571a.43.43 0 0 0 .429-.429c0-.553 1.018-1.571 1.571-1.571a.43.43 0 0 0 .429-.429c0-.553 1.018-1.571 1.571-1.571a.43.43 0 0 0 .429-.429c0-.553 1.018-1.571 1.571-1.571a.43.43 0 0 0 .429-.429c0-.553 1.018-1.571 1.571-1.571a.43.43 0 0 0 .429-.429c0-.553 1.018-1.571 1.571-1.571a.43.43 0 0 0 .429-.427c0-.235.63-1.021 1.4-1.747s1.4-1.704 1.4-2.173.193-.853.429-.853c.553 0 1.571-1.018 1.571-1.571a.43.43 0 0 1 .429-.429c.553 0 1.571-1.018 1.571-1.571 0-.236.168-.429.373-.429s.499-.397.653-.881c.327-1.03 1.135-1.919 1.745-1.919.236 0 .429-.27.429-.6s.18-.6.4-.6.4-.45.4-1 .193-1 .429-1c.553 0 1.571-1.018 1.571-1.571 0-.236.27-.429.6-.429.357 0 .6-.367.6-.905 0-.499.449-1.242 1-1.656s1-1.086 1-1.495.18-.744.4-.744.4-.27.4-.6a.6.6 0 0 1 .6-.6c.357 0 .6-.367.6-.905 0-.499.449-1.242 1-1.656s1-1.086 1-1.495.18-.744.4-.744.4-.27.4-.6a.6.6 0 0 1 .6-.6c.373 0 .6-.378.6-1 0-.55.18-1 .4-1s.4-.45.4-1 .205-1 .456-1c.601 0 1.515-1.228 1.531-2.057a1.05 1.05 0 0 1 .613-.888c.33-.126.6-.596.6-1.042s.18-.813.4-.813.4-.45.4-1c0-.622.227-1 .6-1s.6-.378.6-1c0-.55.18-1 .4-1s.4-.45.4-1c0-.622.227-1 .6-1s.6-.378.6-1c0-.55.18-1 .4-1s.4-.45.4-1c0-.622.227-1 .6-1s.6-.378.6-1c0-.55.18-1 .4-1s.4-.45.4-1c0-.622.227-1 .6-1s.6-.378.6-1c0-.55.18-1 .4-1s.4-.431.4-.957.27-1.061.6-1.188c.377-.144.6-.756.6-1.642 0-.777.18-1.413.4-1.413s.4-.45.4-1c0-.622.227-1 .6-1 .419 0 .6-.422.6-1.4 0-.77.18-1.4.4-1.4s.4-.72.4-1.6c0-1.156.167-1.6.6-1.6.373 0 .6-.378.6-1 0-.55.18-1 .4-1s.4-.608.4-1.351.27-1.575.6-1.849c.345-.286.6-1.158.6-2.049 0-.853.18-1.551.4-1.551s.4-.72.4-1.6c0-1.156.167-1.6.6-1.6s.6-.444.6-1.6c0-.88.18-1.6.4-1.6s.4-.791.4-1.757c0-1.193.193-1.831.6-1.988.423-.162.6-.823.6-2.242 0-1.107.18-2.013.4-2.013s.4-1.067.4-2.4c0-1.867.133-2.4.6-2.4s.6-.556.6-2.6c0-1.467.174-2.6.4-2.6.235 0 .4-1.4.4-3.4 0-2.58.13-3.4.538-3.4.754 0 1.062-8.235 1.062-28.4s-.308-28.4-1.062-28.4c-.408 0-.538-.82-.538-3.4 0-2-.165-3.4-.4-3.4-.226 0-.4-1.133-.4-2.6 0-2.044-.128-2.6-.6-2.6s-.6-.533-.6-2.4c0-1.333-.178-2.4-.4-2.4s-.4-.906-.4-2.013c0-1.419-.177-2.08-.6-2.242-.407-.157-.6-.795-.6-1.988 0-.966-.18-1.757-.4-1.757s-.4-.72-.4-1.6c0-1.156-.167-1.6-.6-1.6s-.6-.444-.6-1.6c0-.88-.18-1.6-.4-1.6s-.4-.698-.4-1.551c0-.891-.255-1.763-.6-2.049-.33-.274-.6-1.106-.6-1.849s-.18-1.351-.4-1.351-.4-.45-.4-1c0-.622-.227-1-.6-1-.433 0-.6-.444-.6-1.6 0-.88-.18-1.6-.4-1.6s-.4-.63-.4-1.4c0-.978-.181-1.4-.6-1.4-.373 0-.6-.378-.6-1 0-.55-.18-1-.4-1s-.4-.636-.4-1.413c0-.886-.223-1.498-.6-1.642-.33-.127-.6-.661-.6-1.188s-.18-.957-.4-.957-.4-.45-.4-1c0-.622-.227-1-.6-1s-.6-.378-.6-1c0-.55-.18-1-.4-1s-.4-.45-.4-1c0-.622-.227-1-.6-1s-.6-.378-.6-1c0-.55-.18-1-.4-1s-.4-.45-.4-1c0-.622-.227-1-.6-1s-.6-.378-.6-1c0-.55-.18-1-.4-1s-.4-.45-.4-1c0-.622-.227-1-.6-1s-.6-.378-.6-1c0-.55-.18-1-.4-1s-.4-.366-.4-.813-.27-.916-.6-1.042a1.05 1.05 0 0 1-.613-.888c-.016-.829-.93-2.057-1.531-2.057-.251 0-.456-.45-.456-1s-.18-1-.4-1-.4-.45-.4-1c0-.622-.227-1-.6-1a.6.6 0 0 1-.6-.6c0-.33-.18-.6-.4-.6s-.4-.335-.4-.744-.45-1.082-1-1.495-1-1.157-1-1.656c0-.538-.243-.905-.6-.905a.6.6 0 0 1-.6-.6c0-.33-.18-.6-.4-.6s-.4-.335-.4-.744-.45-1.082-1-1.495-1-1.157-1-1.656c0-.538-.243-.905-.6-.905-.33 0-.6-.193-.6-.429 0-.553-1.018-1.571-1.571-1.571-.236 0-.429-.45-.429-1s-.18-1-.4-1-.4-.27-.4-.6-.193-.6-.429-.6c-.61 0-1.418-.889-1.745-1.919-.154-.484-.448-.881-.653-.881s-.373-.193-.373-.429c0-.553-1.018-1.571-1.571-1.571a.43.43 0 0 1-.429-.429c0-.553-1.018-1.571-1.571-1.571-.236 0-.429-.384-.429-.853s-.63-1.447-1.4-2.173-1.4-1.512-1.4-1.747a.43.43 0 0 0-.429-.427c-.553 0-1.571-1.018-1.571-1.571a.43.43 0 0 0-.429-.429c-.553 0-1.571-1.018-1.571-1.571a.43.43 0 0 0-.429-.429c-.553 0-1.571-1.018-1.571-1.571a.43.43 0 0 0-.429-.429c-.553 0-1.571-1.018-1.571-1.571a.43.43 0 0 0-.429-.429c-.553 0-1.571-1.018-1.571-1.571a.43.43 0 0 0-.429-.429c-.553 0-1.571-1.018-1.571-1.571a.43.43 0 0 0-.429-.429c-.553 0-1.571-1.018-1.571-1.571a.43.43 0 0 0-.427-.429c-.235 0-1.021-.63-1.747-1.4s-1.704-1.4-2.173-1.4-.853-.193-.853-.429c0-.553-1.018-1.571-1.571-1.571a.43.43 0 0 1-.429-.429c0-.553-1.018-1.571-1.571-1.571-.236 0-.429-.168-.429-.373s-.397-.499-.881-.653c-1.03-.327-1.919-1.135-1.919-1.745 0-.236-.27-.429-.6-.429s-.6-.18-.6-.4-.45-.4-1-.4-1-.193-1-.429c0-.553-1.018-1.571-1.571-1.571-.236 0-.429-.27-.429-.6 0-.357-.367-.6-.905-.6-.499 0-1.242-.449-1.656-1s-1.086-1-1.495-1-.744-.18-.744-.4-.27-.4-.6-.4a.6.6 0 0 1-.6-.6c0-.357-.367-.6-.905-.6-.499 0-1.242-.449-1.656-1s-1.086-1-1.495-1-.744-.18-.744-.4-.27-.4-.6-.4a.6.6 0 0 1-.6-.6c0-.373-.378-.6-1-.6-.55 0-1-.18-1-.4s-.45-.4-1-.4-1-.205-1-.456c0-.601-1.228-1.515-2.057-1.531a1.05 1.05 0 0 1-.888-.613c-.126-.33-.596-.6-1.042-.6s-.813-.18-.813-.4-.45-.4-1-.4c-.622 0-1-.227-1-.6s-.378-.6-1-.6c-.55 0-1-.18-1-.4s-.45-.4-1-.4c-.622 0-1-.227-1-.6s-.378-.6-1-.6c-.55 0-1-.18-1-.4s-.45-.4-1-.4c-.622 0-1-.227-1-.6s-.378-.6-1-.6c-.55 0-1-.18-1-.4s-.45-.4-1-.4c-.622 0-1-.227-1-.6s-.378-.6-1-.6c-.55 0-1-.18-1-.4s-.431-.4-.957-.4-1.061-.27-1.188-.6c-.144-.377-.756-.6-1.642-.6-.777 0-1.413-.18-1.413-.4s-.45-.4-1-.4c-.622 0-1-.227-1-.6 0-.419-.422-.6-1.4-.6-.77 0-1.4-.18-1.4-.4s-.72-.4-1.6-.4c-1.156 0-1.6-.167-1.6-.6 0-.373-.378-.6-1-.6-.55 0-1-.18-1-.4s-.608-.4-1.351-.4-1.575-.27-1.849-.6c-.286-.345-1.158-.6-2.049-.6-.853 0-1.551-.18-1.551-.4s-.72-.4-1.6-.4c-1.156 0-1.6-.167-1.6-.6s-.444-.6-1.6-.6c-.88 0-1.6-.18-1.6-.4s-.791-.4-1.757-.4c-1.193 0-1.831-.193-1.988-.6-.162-.423-.823-.6-2.242-.6-1.107 0-2.013-.18-2.013-.4s-1.067-.4-2.4-.4c-1.867 0-2.4-.133-2.4-.6s-.556-.6-2.6-.6c-1.467 0-2.6-.174-2.6-.4 0-.235-1.4-.4-3.4-.4-2.58 0-3.4-.13-3.4-.538 0-.932-32.484-1.403-52.7-.764m29.5 28.423c2.09.217 4.307.594 4.926.837a7.78 7.78 0 0 0 2.372.442c1.249 0 1.941.163 5.756 1.357 1.129.354 2.347.643 2.705.643s.964.164 1.346.365 1.595.667 2.695 1.038 2.773 1.021 3.717 1.445a103.57 103.57 0 0 0 3.387 1.44c.918.368 2.915 1.353 4.438 2.19S239.388 40 239.482 40s.761.45 1.482 1 1.427 1 1.569 1c1.954 0 19.184 15.016 22.162 19.314.49.707 1.401 1.826 2.024 2.486 1.298 1.375 6.481 8.459 6.481 8.859 0 .146.45.855 1 1.577s1 1.441 1 1.6.45.878 1 1.6 1 1.409 1 1.53.599 1.167 1.332 2.326 1.454 2.378 1.603 2.708c1.827 4.05 3.348 4.747 10.465 4.791 2.2.014 5.17.206 6.6.427 2.515.389 11.869.82 34 1.566 12.993.438 13.756.551 13.438 1.974-.128.573-.35 1.902-.493 2.954s-.414 2.007-.602 2.123-.343.555-.343.975c0 1.688-3.662 9.028-6.4 12.827-8.673 12.034-20.351 19.832-38.888 25.965-3.071 1.016-3.912 1.504-3.912 2.271 0 1.412 6.859 8.479 10.681 11.006 10.088 6.668 9.283 17.294-1.881 24.827-3.552 2.396-4.204 3.476-3.259 5.399 1.151 2.343 3.662 8.578 3.66 9.089 0 .216-1.261 1.569-2.801 3.006-3.634 3.39-3.507 4.142 1.124 6.638 4.358 2.349 4.749 5.343 1.548 11.836-2.227 4.519-2.213 4.374-.572 5.726 19.596 16.149 13.548 34.784-13.7 42.208l-3.6.992-3.6.971c-.99.258-2.634.73-3.654 1.049s-2.147.58-2.505.58-.964.16-1.346.357-1.775.65-3.095 1.01l-4 1.095c-8.61 2.374-9.402 4.091-7.817 16.938 1.292 10.466.838 9.43 4.898 11.18 4.374 1.887 4.272 2.514-1.616 9.926l-4 5.063c-.586.753-1.853 2.283-2.815 3.4L249.011 320l-3.405 4c-.12.11-1.295 1.46-2.612 3l-2.606 3c-.116.11-1.641 1.91-3.388 4l-3.394 4c-.12.11-1.295 1.46-2.612 3l-2.606 3c-.116.11-1.641 1.91-3.388 4l-3.407 4c-.126.11-2.45 2.81-5.163 6l-5.981 7.002-3.449 3.995-4 4.542c-4.906 5.36-4.646 5.283-8.499 2.533-3.306-2.359-13.302-9.938-16.112-12.216-.336-.272-1.686-1.295-3-2.273s-2.479-1.88-2.589-2.003-5.69-4.437-12.4-9.585l-12.4-9.578c-.11-.121-1.28-1.028-2.6-2.017s-2.49-1.904-2.6-2.034-1.032-.85-2.049-1.601-3.717-2.838-6-4.638l-9.551-7.507-6-4.728c-.331-.27-2.221-1.747-4.2-3.281l-5.8-4.533-2.801-2.211-4.998-3.94c-.44-.369-2.781-2.225-5.201-4.123-4.523-3.546-6.066-4.8-8.748-7.105l-1.547-1.33 1.747-1.17c.962-.644 2.648-1.647 3.748-2.229s2.63-1.438 3.4-1.904 2.073-1.213 2.896-1.662c3.178-1.734 7.456-6.752 9.56-11.213 1.559-3.305 2.627-5.913 3.11-7.591.284-.99.696-2.25.914-2.8.666-1.681 1.906-5.797 3.134-10.4l1.005-3.6a120.18 120.18 0 0 0 .978-3.6l1.01-3.8a79.37 79.37 0 0 0 1.021-4.2c.254-1.21.694-2.92.979-3.8 2.206-6.815 1.716-9.561-3.105-17.4-3.133-5.093-2.938-4.764-4.021-6.8a508.53 508.53 0 0 1-6.992-14c-2.121-4.529-3.289-7.144-3.289-7.364 0-.118-.426-1.164-.946-2.325-.83-1.852-1.234-2.839-2.661-6.511l-1.207-3c-.493-1.21-1.041-2.65-1.218-3.2s-.884-2.53-1.572-4.4-1.343-3.76-1.456-4.2-.351-1.16-.527-1.6-.633-1.88-1.016-3.2-.854-2.713-1.047-3.095-.35-.987-.35-1.346-.261-1.486-.58-2.505a66.65 66.65 0 0 1-.968-3.454 131.91 131.91 0 0 0-.889-3.4c-2.715-9.765-2.718-35.253-.004-40.323.242-.453.441-1.228.441-1.722 0-.872.379-2.267 1.4-5.155.272-.77.712-2.12.976-3 .482-1.601.681-2.089 2.535-6.2 1.918-4.254 2.303-5.024 3.902-7.8l2.064-3.7c.248-.495.603-.9.787-.9s.336-.203.336-.451c0-.393 2.954-4.621 4.854-6.948 4.428-5.423 10.07-11.251 13.946-14.404l2.601-2.131c2.167-1.803 6.832-5.04 10.68-7.411 4.612-2.841 14.449-7.705 18.319-9.059.77-.269 1.967-.739 2.66-1.043s1.461-.553 1.706-.553.757-.158 1.139-.352c.748-.378 3.595-1.266 6.495-2.025l3.8-1.033c1.1-.309 2.63-.651 3.4-.759 4.189-.593 6.75-1.046 7.997-1.416.769-.228 2.569-.436 4-.462s3.143-.192 3.803-.368c1.529-.408 14.809-.183 19.8.336m4.6 104.486c-9.264 1.522-13.8 4.134-13.8 7.948 0 .678-.17 2.001-.377 2.939-.609 2.758-1.333 6.742-1.655 9.106-1.815 13.337-2.249 14.256-7.204 15.267-6.441 1.314-7.996 1.18-10.256-.886-15.894-14.53-27.073-12.555-29.542 5.219-3.223 23.209 10.959 45.853 26.587 42.453l3.047-.646 2.709-.573c2.182-.477 2.25.167.238 2.236-3.136 3.224-6.066 4.31-13.347 4.946-12.913 1.127-16.864 1.725-24.4 3.692-2.096.547-3.741 2.707-3.784 4.968-.009.482-.196.988-.416 1.124s-.4.698-.4 1.25-.185 1.348-.411 1.771-.57 1.535-.765 2.473c-.753 3.63-2.113 8.938-2.46 9.601-.2.382-.364 1.025-.364 1.428s-.249 1.532-.553 2.506-.749 2.491-.989 3.371l-2.055 7.2c-.163.44-1.076 3.23-2.029 6.2l-2.013 6c-.153.33-.548 1.32-.876 2.2-1.393 3.734-2.838 7.339-3.73 9.311-.525 1.161-.955 2.252-.955 2.425s-.45 1.247-1 2.387-1 2.333-1 2.651-.18.69-.4.826c-1.536.949 2.068 4.343 14.8 13.938 1.21.911 2.29 1.761 2.4 1.886s1.28 1.026 2.6 2 2.49 1.875 2.6 2 1.28 1.026 2.6 2 2.49 1.875 2.6 2.002 1.19.974 2.4 1.883l5.224 3.972 5.4 4.117c1.307.988 2.466 1.901 2.576 2.026s1.28 1.026 2.6 2 2.49 1.875 2.6 2 1.28 1.026 2.6 2 2.49 1.869 2.6 1.989c.688.75 20.061 15.187 20.379 15.187.712 0 1.221-3.836 1.221-9.211 0-5.312.341-7.861 1.635-12.217.201-.676.365-1.525.365-1.887s.254-1.249.564-1.971.841-2.214 1.181-3.314 1.172-3.53 1.849-5.4l2.067-5.8c.461-1.32.995-2.571 1.188-2.78s.351-.764.351-1.233.123-.977.274-1.128c.277-.277.855-1.773 1.954-5.059.331-.99.865-2.278 1.187-2.862s.585-1.409.585-1.833.123-.895.274-1.046c.289-.289.883-1.83 2.101-5.459.406-1.21.918-2.65 1.137-3.2.465-1.169 2.213-7.001 2.877-9.6l1.019-3.8c.849-3.038 1.043-4.429 1.256-9l.195-4.2-3.09-2.2c-9.84-7.005-18.794-20.036-19.965-29.057-.386-2.97.245-3.061 2.936-.423 2.279 2.236 8.032 6.634 10.516 8.041 2.981 1.688 10.136 5.039 10.76 5.039.217 0 .707.164 1.089.365.824.432 3.582 1.342 6.095 2.01.99.264 2.43.68 3.2.926 5.052 1.612 19.809 2.745 25.146 1.93 6.356-.971 8.173-1.435 11.661-2.984 3.791-1.682 7.907-5.971 9.09-9.47 1.683-4.979-1.555-12.075-12.011-26.318l-1.571-2.14.496-3.06.813-5.259c.174-1.21.426-2.74.562-3.4s.522-2.82.859-4.8l1.024-5.602c.406-1.972.285-5.647-.263-7.998-.631-2.713-2.159-5.713-4.748-9.327-1.682-2.348-7.5-8.271-9.81-9.988-3.963-2.945-5.011-4.276-4.353-5.529.334-.636.788-1.606 1.008-2.156l1.128-2.741c1.442-3.451.771-3.85-11.631-6.918-.88-.218-2.41-.655-3.4-.971s-2.117-.573-2.505-.572a3.59 3.59 0 0 1-1.4-.361c-.382-.2-1.955-.724-3.495-1.165-3.76-1.076-7.946-2.593-8.232-2.983-.369-.503-2.789-.64-4.968-.282m-48.88 36.243c2.737 1.389 14.28 12.102 14.28 13.253 0 .317-.665 1.653-1.477 2.969-1.793 2.905-2.192 5.971-1.169 8.974 1.379 4.047.518 5.244-2.713 3.772-4.937-2.249-6.598-6.763-4.843-13.166 1.619-5.908-3.533-11.257-7.953-8.257-.806.547-1.931 1.112-2.5 1.255l-1.035.259.291-2.115c.834-6.063 3.579-8.741 7.119-6.944" fill="#fbfbfb"/></svg>