<svg xmlns="http://www.w3.org/2000/svg" width="400" height="400" viewBox="0 0 400 NaN" xmlns:v="https://vecta.io/nano"><path d="M172.578 29.825c-60.042 11.226-97.285 61.489-85.371 115.22 4.85 21.873 18.607 55.376 29.937 72.905 4.259 6.589 4.263 6.691.919 19.888-9.029 35.624-12.312 42.287-23.751 48.202-4.787 2.475-8.687 4.906-8.666 5.401.044 1.047 110.992 87.388 112.293 87.388.479 0 3.826-3.446 7.439-7.658l10.811-12.612 10.037-11.712c46.658-54.408 43.96-50.68 38.407-53.06l-3.835-1.644-1.12-7.115c-2.211-14.05-1.49-16.564 5.334-18.598 7.515-2.24 16.86-4.835 23.462-6.514 25.937-6.596 33.951-25.612 16.961-40.247l-4.334-3.734 2.152-4.047c3.1-5.831 2.893-9.76-.618-11.705-6.112-3.386-6.133-3.447-2.369-6.693l3.419-2.949-2.293-5.613c-2.834-6.937-3.017-5.965 1.734-9.234 11.258-7.746 11.939-19.2 1.49-25.072-3.235-1.819-11.637-10.636-10.811-11.347.186-.16 3.177-1.214 6.645-2.341 23.895-7.764 40.698-23.914 44.141-42.425l.602-3.239-13.362-.594-31.352-1.405c-9.894-.446-18.111-1.177-18.261-1.625-.925-2.776-9.163-16.068-13.329-21.508-23.704-30.947-57.287-43.609-96.311-36.313m41.351 103.452c.66 1.068 11.788 4.568 23.301 7.33 9.789 2.348 9.636 2.139 6.628 9.014l-1.411 3.224 6.611 5.56c10.477 8.812 14.951 17.63 13.105 25.829-.447 1.982-1.466 7.765-2.266 12.85l-1.454 9.246 6.506 9.222c8.853 12.55 9.729 18.113 3.846 24.428-13.04 13.999-56.561 7.174-74.237-11.641-2.936-3.125-3.87-2.78-3.155 1.166 1.934 10.665 12.551 25.019 22.712 30.706 2.376 1.329-1.008 17.176-7.149 33.483-13.522 35.903-14.477 39.196-14.537 50.152-.03 5.375-.368 8.068-.967 7.711-.507-.302-5.989-4.446-12.183-9.21L150 319.837l-25.51-19.642c-4.121-3.185-7.291-6.255-7.046-6.822 8.601-19.858 12.531-31.493 17.768-52.607 2.996-12.08 4.177-15.541 5.303-15.541.797 0 3.865-.642 6.818-1.427s10.055-1.737 15.782-2.118c10.752-.713 13.649-1.706 17.26-5.914 2.422-2.822 1.92-3.151-2.511-1.641-16.688 5.686-31.253-10.754-31.174-35.188.071-21.713 11.623-27.14 27.675-12.999l4.464 3.932 6.274-.931c7.327-1.087 6.519.476 9.548-18.489l2.123-12.366c2.071-2.339 16.229-6.306 17.155-4.807m-58.544 37.348c-1.507 2.3-2.874 8.654-1.863 8.654.333 0 1.822-.899 3.309-1.999 4.274-3.16 10.082 2.469 8.053 7.805-1.731 4.552-1.131 8.537 1.713 11.381 3.353 3.353 7.85 3.752 6.829.606-1.697-5.23-1.547-8.685.503-11.563l2.038-2.863-7.233-7.089c-7.969-7.81-10.782-8.849-13.349-4.932" fill-rule="evenodd"/></svg>
