<svg id="svg" version="1.1" xmlns="http://www.w3.org/2000/svg" xmlns:xlink="http://www.w3.org/1999/xlink" width="400" height="400" viewBox="0, 0, 400,400"><g id="svgg"><path id="path0" d="M351.080 27.018 C 346.316 29.369,345.631 34.541,349.269 40.710 L 351.663 44.771 347.564 48.922 L 343.464 53.073 340.863 50.034 C 332.761 40.568,322.310 50.338,328.967 61.156 L 331.371 65.063 327.233 69.253 L 323.094 73.443 320.336 70.335 C 312.130 61.086,302.132 70.701,308.579 81.641 L 310.881 85.547 306.859 89.623 L 302.838 93.699 299.977 90.600 C 291.667 81.599,282.004 90.950,288.224 101.973 L 290.511 106.025 286.178 110.239 C 282.978 113.351,281.733 114.149,281.419 113.289 C 279.448 107.884,271.620 105.937,267.685 109.872 C 264.501 113.056,264.597 117.112,267.984 122.528 L 270.264 126.172 265.904 130.469 C 262.688 133.639,261.432 134.460,261.114 133.601 C 259.230 128.519,251.481 126.292,247.756 129.763 C 243.886 133.367,243.847 136.507,247.589 142.855 L 249.844 146.679 244.132 152.352 L 238.421 158.025 235.347 154.794 C 230.959 150.181,225.343 150.470,222.395 155.461 C 220.258 159.078,220.615 160.997,224.716 167.939 L 226.118 170.313 221.901 174.583 L 217.685 178.852 216.331 176.627 C 213.000 171.150,207.683 170.286,203.438 174.531 C 199.659 178.309,199.812 180.479,204.403 188.251 L 205.806 190.625 201.589 194.895 L 197.373 199.164 195.506 196.417 C 188.352 185.889,176.603 195.518,182.928 206.724 L 185.386 211.081 181.003 215.465 C 178.592 217.876,176.478 219.689,176.305 219.494 C 176.132 219.300,171.694 211.863,166.442 202.967 C 156.066 185.392,154.350 183.199,150.091 182.064 C 138.980 179.103,131.742 190.000,137.528 200.977 C 138.830 203.447,139.730 205.469,139.527 205.469 C 139.325 205.469,136.765 204.935,133.838 204.283 C 130.910 203.631,127.760 202.930,126.836 202.725 C 125.604 202.452,121.548 196.256,111.629 179.497 C 88.753 140.842,89.876 142.351,83.430 141.625 C 72.114 140.349,67.074 151.412,73.833 162.686 C 84.328 180.189,96.877 201.602,97.055 202.310 C 97.171 202.771,94.901 203.985,92.011 205.008 C 68.692 213.259,43.047 237.910,28.950 265.625 C 2.421 317.781,15.879 373.019,55.078 372.869 C 70.908 372.808,71.372 372.440,133.441 310.595 C 194.064 250.191,193.154 251.284,189.905 242.739 C 189.268 241.063,189.717 240.319,193.811 236.268 C 196.356 233.750,198.437 232.093,198.437 232.586 C 198.438 235.079,203.696 239.063,206.988 239.063 C 214.330 239.063,217.000 232.193,212.500 224.879 C 209.529 220.050,209.412 220.604,214.453 215.625 C 216.816 213.291,218.750 211.784,218.750 212.276 C 218.750 214.767,224.010 218.750,227.301 218.750 C 234.754 218.750,237.240 212.035,232.714 204.125 L 230.272 199.857 234.419 195.659 L 238.565 191.461 240.391 194.148 C 247.870 205.155,259.694 195.466,253.020 183.800 L 250.571 179.520 256.424 173.667 L 262.277 167.814 263.932 170.492 C 266.602 174.811,270.712 176.046,275.016 173.820 C 279.696 171.400,280.295 165.776,276.507 159.804 L 274.108 156.021 278.203 151.874 L 282.299 147.727 285.540 151.207 C 293.638 159.903,303.100 151.483,297.429 140.627 L 294.674 135.353 298.729 131.348 L 302.783 127.344 305.493 130.511 C 313.387 139.735,323.492 131.323,317.742 120.315 L 314.986 115.040 319.306 110.840 C 322.060 108.162,323.759 107.005,323.997 107.646 C 326.607 114.708,336.159 115.746,339.477 109.328 C 341.076 106.236,340.648 103.776,337.616 98.634 L 335.308 94.719 339.509 90.569 C 341.820 88.287,343.834 86.575,343.984 86.765 C 344.133 86.954,345.027 88.227,345.969 89.592 C 353.380 100.332,364.785 89.336,357.878 78.111 L 355.607 74.420 359.879 70.218 C 363.440 66.715,364.268 66.222,364.857 67.258 C 368.612 73.863,376.290 74.922,379.714 69.306 C 381.865 65.778,381.633 63.526,378.609 58.594 L 375.975 54.297 379.928 50.221 C 390.696 39.117,378.721 22.288,366.130 30.832 L 363.293 32.757 362.150 30.547 C 360.087 26.558,355.182 24.995,351.080 27.018 M120.278 241.023 C 131.601 260.217,135.458 263.122,143.762 258.710 C 151.253 254.729,152.015 247.800,146.073 237.704 C 141.415 229.790,141.100 230.434,149.051 231.603 C 156.491 232.697,156.173 232.467,160.617 239.962 L 163.987 245.645 116.954 292.937 C 56.318 353.908,58.572 352.059,50.164 347.725 C 32.524 338.632,35.751 296.397,56.450 265.451 C 70.595 244.305,99.569 222.743,110.425 225.285 C 110.788 225.370,115.222 232.452,120.278 241.023 M76.145 247.969 C 67.393 251.782,52.864 275.675,48.064 294.149 C 40.886 321.776,47.712 346.069,61.052 340.377 C 65.965 338.280,103.151 299.685,106.093 293.628 C 113.001 279.408,111.132 270.299,98.858 258.373 C 88.643 248.448,82.016 245.411,76.145 247.969 M91.882 285.419 C 90.440 288.349,85.911 293.409,75.331 303.906 L 60.765 318.359 61.259 312.476 C 61.803 305.999,64.146 295.371,66.017 290.892 L 67.217 288.019 68.787 289.703 C 73.177 294.416,77.714 293.032,86.347 284.346 C 94.193 276.451,96.112 276.823,91.882 285.419 " stroke="none" fill="#D04539" fill-rule="evenodd"></path></g></svg>
