<svg xmlns="http://www.w3.org/2000/svg" with="360" height="360" viewBox="135 105 540 500"><!-- Potasiepe ® Marchio Registrato, Registered Trademark --><g fill-rule="evenodd"><path fill="#003200" d="M557.024 327.593c-7.841-18.106-23.425-32.079-35.253-40.365-2.864-17.56-17.081-36.194-46.459-38.582-26.483-6.992-37.473-11.55-46.417-15.312-.273-2.567-1.22-5.959-.479-9.922 4.214-1.087 8.708-2.633 11.969-3.346 12.038-2.634 14.634-12.012 5.273-18.504 2.411-3.252 2.441-5.664 1.16-6.454l-3.027-1.407 3.027-2.578-2.074-5.098c8.449-3.957 6.2-10.568 1.326-12.153l-3.556-4.111c13.36-3.528 19.783-10.415 21.749-20.15l-26.291-1.131c-7.272-15.077-21.605-29.208-46.752-24.323-19.323 3.426-43.694 22.581-33.221 54.036 3.781 11.351 7.173 19.052 12.539 26.959-2.871 13.881-5.122 18.356-7.412 23.433-8.092 5.29-27.51 13.041-40.175 13.632-28.708 1.338-46.175 16.395-58.135 35.543-31.868 9.944-58.26 68.523-56.328 93.183.833 10.62 85.535 45.289 107.413 44.966l1.312-34.522c-16.386-14.066-29.578-17.095-37.632-25.466 7.085-1.258 25.445-6.149 34.408-14.96l20.68 86.417 139.174-.319c1.539-16.576 5.391-39.745 11.555-69.502 51.313 41.434 54.957 22.676 76.439 22.159 14.115-20.767 13.394-37.533-4.813-52.123z"/><path d="M553.917 339.333c-27.111-18.132-57.25-9.875-86.542-16.625l-4.63 14.972 14.206-4.732 9.461.989-.549 15.66 21.75 15.823 17.093-8.889-5.145 9.944 7.473.286 19.479-12.321-3.798 9.6 7.169-1.463 9.376-9.257c-.414-3.034.456-12.286-5.343-13.987zm-140.166 54.769l-18.561 3.143c-6.45 1.155-8.63-2.086-9.168-4.438l-11.326-39.826c-2.308-6.781.861-9.68 4.811-11.649l14.392-4.631 2.467-15.223-22.788 7.866c-7.042 2.86-14.541 8.869-14.166 20.238l15.292 55.213c3.1 5.615 10.808 8.532 18.182 7.025l22.446-5.938c2.623-5.67 1.958-9.619-1.581-11.78zm-25.946-75.069l11.857-4.3 1.897-9.193-12.327 4.65z" fill="#fff"/><g fill="#003200"><path d="M309.806 380.813v28.994c-.539 3.137 1.681 7.683 4.992 9.084-2.773 8.411 6.522 10.976 8.67 10.454l28.347-1.786-17.373-62.001c-11.398 4.567-21.417 7.042-24.636 15.255zm351.708-28.717l-200.229 22.956-11.479 26.461 202.459-25.822c16.353-2.711 22.549-20.793 9.249-23.595z"/><path d="M611.144 395.871c5.25-1.747 14.964-8.173 28.245-18.335l6.823-16.194c5.865-11.078 9.034-17.802 10.84-22.318-23.451 18.958-38.525 41.527-45.908 56.847zm-19.851-.588c5.632-1.156 15.21-8.267 25.903-17.042l11.796-18.812c5.913-11.11 7.752-16.236 8.29-19.449l-23.913 21.04-22.076 34.263zm-11.403-11.622l-7.013 12.751c5.521-1.26 13.351-7.272 22.318-15.625l12.752-18.491 6.857-20.538-25.986 23.408-8.928 18.495zm-29.014 17.533l20.406-16.579 10.525-18.811 9.881-21.679-21.361 21.042zm-21.36 0c7.313-2.646 15.14-10.083 23.274-20.407h-14.346l-8.928 20.407zm-15.942-14.984l-7.331 15.942c-2.709 3.079 18.023-9.314 23.273-14.986 2.144-2.314-15.942-.956-15.942-.956zm-21.363 2.868l-9.882 16.901c-.677 3.131 21.079-8.809 24.546-15.625 1.64-3.21-14.664-1.276-14.664-1.276zm-2.55-11.479l9.883-15.621-22.317 14.984z"/></g><path d="M374.492 170.596c22.274-7.051 46.305-14.341 58.097-21.597-10.305-16.528-23.617-21.381-34.616-19.96-18.804 3.535-27.634 18.699-23.481 41.557zm35.714-6.804c19.639 5.468 40.859 4.858 48.591-10.523l-22.572-.764c-3.863 2.61-12.536 6.372-26.019 11.287z" fill="#d1493d"/><path fill="#fff" d="M427.805 197.654l1.339-8.419c1.323-3.813-.211-8.182-8.033-13.772l1.72-4.208c-12.979-2.886-13.938-4.07-14.155-4.592l-6.563 2.531-1.989 12.553-5.603.794c-10.08-11.104-14.694-1.575-12.91 7.277 2.038 10.077 7.549 14.313 15.014 9.94-1.738 3.662-4.567 4.814-11.317 4.428l-7.237 1.504c-3.201 15.087-6.22 22.53-9.083 28.572l31.548 24.301c-2.426-10.711 7.178-22.237 9.464-38.147-6.947-3.812-10.481-10.766-10.314-15.11 13.852 14.097 38.006 11.307 33.48 0l-5.361-7.652z"/><path fill="#003200" d="M388.092 182.285c-2.861-1.455-4.044.568-4.237 4.643 1.639-1.654 3.156-2.58 4.313-1.212l1.056 2.24c-1.774 2.998-.51 7.565 3.875 6.769-1.87-3.166-1.392-5.381.693-6.947-3.26-2.792-4.999-4.508-5.7-5.493z"/><path d="M329.264 418.641c-2.335-.892-1.106-2.276.011-3.699l13.806-.723-1.313-7.038-13.657.412c-1.532-1.269-3.333-2.798-1.647-4.254l15.205-.934-.255-8.261-15.747.441c-2.818-1.298-2.837-2.774-.537-4.41l14.865-1.222c-.052-1.93.233-6.893-.299-9.809l-21.095.509c-5.162.205-5.782 11.903-.415 14.264-4.013 1.995-4.237 6.965.642 11.996-3.928 4.36-1.183 11.66 2.806 11.737-2.741 4.165.94 7.309 4.807 7.69l17.323-.417-2.247-6.287-12.253.005zm-68.183-64.461c5.062-1.818 13.511-3.749 22.919-10.18-5.047-3.611-22.969-16.361-31.711-24.289-5.91 3.027-16 16.289-20.775 34.813 12.432 18.674 43.782 31.667 77.814 38.036-2.404-4.823-2.492-8.653-.263-11.491-19.273-13.381-41.922-18.273-47.984-26.889zm191.026-37.505c-1.059-7.08-8.566-8.776-13.517-7.002-2.857-7.322-8.415-7.713-14.84-5.89-3.262-6.371-12.292-6.316-16.848-.547l-8.095 31.876c2.038 3.814 4.771 6.818 12.375 4.152l7.604-25.357c2.308-2.421 3.632-1.72 4.277 1.117l-7.009 25.163c1.141 4.009 5.417 4.774 10.781 2.242l7.063-22.357c2.02-2.132 3.253-1.478 3.826 1.483l-7.488 22.17c1.04 4.165 4.611 4.919 9.531 1.678l7.076-18.429c2.615-1.549 3.358-1.097 3.375.934l-6.536 18.802 10.61-3.382 5.981-15.793c2.794-4.821 1.993-10.468-8.166-10.86zm-30.268 72.474l54.465-17.608c4.273-8.462 4.718-20.119 4.78-32.09l-54.096 17.57c1.748 12.033-1.128 24.686-5.149 32.128z" fill="#fff"/><path d="M338.697 355.69l14.698-5.427c-.652-4.154-.146-7.183 1.52-9.085l-11.875 5.21-4.343 9.302zm17.937 3.59l-14.981 5.469 12.22 44.688 17.777 1.716-4.879-12.739z" fill="#d1493d"/><path d="M396.658 341.495l-7.41 2.84 7.628 6.185 10.617 1.067c6.103.392 7.165-1.811 6.305-5.014-9.587.529-14.631-1.55-17.14-5.078zm259.999 16.24l-176.819 19.94-36.993 13.298 205.849-22.051c12.049-1.234 13.692-8.915 7.963-11.187z" fill="#fff"/><path fill="#006400" d="M515.035 290.344c-5.104-19.861-15.858-31.175-39.035-34.482-14.341-2.047-38.816-9.723-48.572-13.94l-24.494 28.198-39.988-30.421c-17.424 6.746-29.04 8.746-39.793 9.5-28.261 1.982-45.147 19.275-52.05 35.636-15.447 8.086-21.007 15.715-22.624 22.183l42.568 32.993c18.34-1.194 38.372-25.71 40.627-35.477 3.073 12.188-5.886 24.065-9.159 28.653l6.407 30.169 3.848-1.063-.552-7.472 6.862-13.6 15.435-6.304c1.743-9.085 13.251-13.336 28.109-17.66l2.859-10.625 15.421-7.779c6.754-9.661 21.124-7.278 23.999-1.332 5.442-2.511 14.242-.608 15.962 6.126 7.705-2.115 14.441 2.194 15.217 8.063 4.349-2.608 10.955 2.433 10.475 5.54 4.179-1.256 10.895-28.794 11.586-37.251 4.139 11.312 2.595 28.065.163 38.138 17.226 2.417 41.947-3.014 68.699 11.072-7.051-18.298-22.268-32.52-31.97-38.865z"/><path fill="#d1493d" d="M405.065 422.935l47.261-11.766 3.897-10.475-53.095 13.816z"/><path fill="#fff" d="M457.653 404.047l15.546-7.983-7.914.522z"/><path fill="#d1493d" d="M385.039 347.516c-2.588.522-4.083 2.449-4.484 5.779l9.851 34.221c2.675 2.738 5.341 3.801 8 3.188l14.149-1.11c3.271-11.384 4.581-21.496 3.929-30.334L396 356.484l-10.961-8.968z"/></g><path d="M641.057 436H165a3 3 0 0 0-3 3v98a3 3 0 0 0 3 3h476.057a3 3 0 0 0 3-3v-98a3 3 0 0 0-3-3zM150 439c0-8.284 6.716-15 15-15h476.057c8.284 0 15 6.716 15 15v98c0 8.284-6.716 15-15 15H165c-8.284 0-15-6.716-15-15v-98z" fill="#003200"/><path d="M226.566 484.035c0 2.073-.256 3.925-.769 5.555s-1.205 3.068-2.079 4.314-1.88 2.311-3.021 3.196a17.55 17.55 0 0 1-3.581 2.166c-1.246.559-2.503.966-3.772 1.223s-2.463.385-3.581.385h-20.541v-9.083h20.541c1.164-.093 2.218-.332 3.161-.716s1.753-.902 2.428-1.555a6.76 6.76 0 0 0 1.571-2.358c.372-.92.559-1.962.559-3.127v-4.122a11.97 11.97 0 0 0-.733-3.144c-.372-.956-.879-1.77-1.52-2.445s-1.415-1.205-2.323-1.59-1.957-.577-3.144-.577h-20.471c-1.211 0-2.131.314-2.759.943s-.943 1.538-.943 2.726v37.343h-9.082v-37.343c0-2.329.425-4.309 1.275-5.939s1.909-2.946 3.178-3.947a12.56 12.56 0 0 1 4.14-2.184c1.491-.455 2.864-.681 4.123-.681h20.541c2.049 0 3.889.262 5.519.787s3.068 1.223 4.314 2.096 2.306 1.88 3.179 3.021 1.595 2.335 2.166 3.581.984 2.503 1.24 3.773.384 2.462.384 3.58v4.122zm60.316 8.873c0 3.051-.524 5.857-1.572 8.419s-2.503 4.774-4.366 6.638-4.07 3.313-6.62 4.349-5.327 1.555-8.331 1.555h-12.296c-3.005 0-5.788-.519-8.35-1.555s-4.774-2.486-6.637-4.349-3.324-4.076-4.383-6.638-1.589-5.368-1.589-8.419v-9.572c0-3.027.53-5.828 1.589-8.401s2.521-4.786 4.383-6.637 4.076-3.301 6.637-4.35 5.345-1.572 8.35-1.572h12.296c3.004 0 5.781.524 8.331 1.572s4.757 2.498 6.62 4.35 3.318 4.064 4.366 6.637 1.572 5.374 1.572 8.401v9.572zm-9.083-9.572c0-1.793-.286-3.417-.856-4.873s-1.374-2.701-2.41-3.737-2.282-1.84-3.738-2.411-3.057-.856-4.803-.856h-12.296c-1.77 0-3.383.286-4.839.856s-2.708 1.374-3.755 2.411-1.857 2.282-2.427 3.737-.856 3.08-.856 4.873v9.572c0 1.793.285 3.417.856 4.873s1.379 2.702 2.427 3.738 2.3 1.84 3.755 2.411 3.069.856 4.839.856h12.226c1.77 0 3.383-.286 4.838-.856s2.707-1.374 3.755-2.411 1.857-2.283 2.428-3.738.856-3.08.856-4.873v-9.572zm63.357-11.178h-20.015v41.011h-9.083v-41.011h-20.052v-9.083h49.15zm52.34 41.011h-9.083v-12.296h-31.929v12.296h-9.083v-25.046c0-3.657.628-7.022 1.886-10.097s3.004-5.717 5.24-7.929 4.879-3.936 7.93-5.17 6.381-1.852 9.99-1.852h20.471c.629 0 1.223.116 1.782.349a4.49 4.49 0 0 1 1.467.979 4.5 4.5 0 0 1 .978 1.467c.233.559.35 1.153.35 1.782v45.517zm-41.012-21.378h31.929v-19.633h-15.965c-.279 0-.868.041-1.764.123s-1.933.285-3.108.611-2.416.827-3.72 1.502-2.504 1.607-3.599 2.794-1.997 2.672-2.707 4.454-1.065 3.942-1.065 6.481v3.668zm98.186 6.636c0 1.793-.227 3.407-.681 4.838s-1.053 2.695-1.799 3.79-1.618 2.026-2.62 2.795-2.038 1.397-3.109 1.886-2.16.85-3.266 1.083-2.148.35-3.126.35h-35.038v-9.083h35.038c1.747 0 3.103-.512 4.069-1.537s1.449-2.399 1.449-4.123c0-.838-.128-1.607-.384-2.306s-.623-1.304-1.1-1.816-1.06-.908-1.747-1.188-1.45-.419-2.288-.419h-20.891c-1.466 0-3.05-.262-4.75-.786s-3.278-1.368-4.734-2.532-2.666-2.69-3.633-4.576-1.45-4.192-1.45-6.917.483-5.024 1.45-6.899 2.178-3.4 3.633-4.576 3.034-2.026 4.734-2.55 3.284-.787 4.75-.787h30.917v9.083h-30.917c-1.723 0-3.067.524-4.034 1.572s-1.45 2.434-1.45 4.157c0 1.747.483 3.127 1.45 4.14s2.312 1.52 4.034 1.52h20.891.069c.979.023 2.015.157 3.109.401s2.183.623 3.266 1.135a15.79 15.79 0 0 1 3.092 1.938c.979.78 1.846 1.718 2.603 2.813s1.356 2.353 1.799 3.773.664 3.028.664 4.821zm6.92-35.352h9.083v50.094h-9.083zm58.724 29.623h-28.681v-9.152h28.681v9.152zm4.087 20.471h-32.768c-1.257 0-2.631-.221-4.122-.664s-2.87-1.17-4.139-2.183-2.329-2.329-3.179-3.947-1.275-3.604-1.275-5.956v-32.767c0-.629.116-1.223.349-1.782s.553-1.048.961-1.467a4.32 4.32 0 0 1 1.45-.979c.559-.233 1.165-.349 1.816-.349h40.907v9.083H484v28.261c0 1.188.314 2.096.943 2.725s1.549.943 2.76.943H520.4v9.082zm58.569-29.134c0 2.073-.256 3.925-.769 5.555s-1.205 3.068-2.079 4.314a14.69 14.69 0 0 1-3.021 3.196 17.55 17.55 0 0 1-3.581 2.166c-1.246.559-2.504.966-3.773 1.223s-2.462.385-3.58.385h-20.541v-9.083h20.541c1.164-.093 2.218-.332 3.161-.716s1.752-.902 2.428-1.555 1.199-1.438 1.572-2.358.559-1.962.559-3.127v-4.122a11.97 11.97 0 0 0-.733-3.144c-.372-.956-.879-1.77-1.52-2.445s-1.415-1.205-2.323-1.59-1.956-.577-3.144-.577h-20.471c-1.211 0-2.131.314-2.76.943s-.943 1.538-.943 2.726v37.343h-9.083v-37.343c0-2.329.425-4.309 1.275-5.939s1.91-2.946 3.179-3.947a12.56 12.56 0 0 1 4.14-2.184c1.491-.455 2.864-.681 4.123-.681h20.541c2.049 0 3.889.262 5.519.787s3.068 1.223 4.314 2.096 2.306 1.88 3.179 3.021 1.595 2.335 2.166 3.581.984 2.503 1.24 3.773.384 2.462.384 3.58v4.122zm48.928 8.663h-28.681v-9.152h28.681v9.152zm4.087 20.471h-32.768c-1.257 0-2.631-.221-4.122-.664s-2.87-1.17-4.14-2.183-2.329-2.329-3.179-3.947-1.275-3.604-1.275-5.956v-32.767c0-.629.116-1.223.349-1.782a4.65 4.65 0 0 1 .96-1.467 4.32 4.32 0 0 1 1.45-.979c.559-.233 1.165-.349 1.816-.349h40.907v9.083h-36.401v28.261c0 1.188.314 2.096.944 2.725s1.549.943 2.76.943h32.697v9.082z" fill-rule="evenodd" fill="#d1493d"/></svg>
